<svg width="125" height="125" viewBox="0 0 125 125" fill="none" xmlns="http://www.w3.org/2000/svg">
<g id="Group">
<path id="Vector" d="M95.7031 0H29.2969C13.1167 0 0 13.1167 0 29.2969V95.7031C0 111.883 13.1167 125 29.2969 125H95.7031C111.883 125 125 111.883 125 95.7031V29.2969C125 13.1167 111.883 0 95.7031 0Z" fill="url(#paint0_radial_254_20636)"/>
<path id="Vector_2" d="M95.7031 0H29.2969C13.1167 0 0 13.1167 0 29.2969V95.7031C0 111.883 13.1167 125 29.2969 125H95.7031C111.883 125 125 111.883 125 95.7031V29.2969C125 13.1167 111.883 0 95.7031 0Z" fill="url(#paint1_radial_254_20636)"/>
<path id="Vector_3" d="M62.5044 13.6719C49.2437 13.6719 47.5791 13.73 42.3711 13.9668C37.1729 14.2051 33.6245 15.0278 30.52 16.2354C27.3081 17.4824 24.584 19.1509 21.8701 21.8657C19.1538 24.5801 17.4854 27.3042 16.2344 30.5146C15.0234 33.6201 14.1997 37.1699 13.9658 42.3657C13.7329 47.5742 13.6719 49.2393 13.6719 62.5005C13.6719 75.7617 13.7305 77.4209 13.9668 82.6289C14.2061 87.8271 15.0288 91.3755 16.2354 94.48C17.4834 97.6919 19.1519 100.416 21.8667 103.13C24.5801 105.846 27.3042 107.519 30.5137 108.766C33.6206 109.973 37.1694 110.796 42.3667 111.034C47.5752 111.271 49.2383 111.329 62.4985 111.329C75.7607 111.329 77.4199 111.271 82.6279 111.034C87.8262 110.796 91.3784 109.973 94.4854 108.766C97.6958 107.519 100.416 105.846 103.129 103.13C105.845 100.416 107.513 97.6919 108.765 94.4814C109.965 91.3755 110.789 87.8262 111.033 82.6299C111.267 77.4219 111.328 75.7617 111.328 62.5005C111.328 49.2393 111.267 47.5752 111.033 42.3667C110.789 37.1685 109.965 33.6206 108.765 30.5161C107.513 27.3042 105.845 24.5801 103.129 21.8657C100.413 19.1499 97.6968 17.4814 94.4824 16.2358C91.3696 15.0278 87.8193 14.2046 82.6211 13.9668C77.4126 13.73 75.7544 13.6719 62.4893 13.6719H62.5044ZM58.124 22.4712C59.4243 22.4692 60.875 22.4712 62.5044 22.4712C75.542 22.4712 77.0869 22.5181 82.2354 22.752C86.9961 22.9697 89.5801 23.7651 91.3013 24.4336C93.5801 25.3184 95.2046 26.3765 96.9126 28.0859C98.6216 29.7949 99.6792 31.4224 100.566 33.7012C101.235 35.4199 102.031 38.0039 102.248 42.7646C102.482 47.9121 102.533 49.458 102.533 62.4893C102.533 75.5205 102.482 77.0669 102.248 82.2139C102.03 86.9746 101.235 89.5586 100.566 91.2778C99.6816 93.5566 98.6216 95.1792 96.9126 96.8872C95.2036 98.5962 93.5811 99.6538 91.3013 100.539C89.582 101.21 86.9961 102.004 82.2354 102.222C77.0879 102.456 75.542 102.506 62.5044 102.506C49.4663 102.506 47.9209 102.456 42.7739 102.222C38.0132 102.002 35.4292 101.207 33.7065 100.538C31.4282 99.6528 29.8003 98.5952 28.0913 96.8862C26.3823 95.1772 25.3247 93.5537 24.4375 91.2739C23.769 89.5547 22.9727 86.9707 22.7559 82.21C22.522 77.0625 22.4751 75.5166 22.4751 62.4771C22.4751 49.438 22.522 47.8999 22.7559 42.7524C22.9736 37.9917 23.769 35.4077 24.4375 33.6865C25.3228 31.4077 26.3823 29.7803 28.0918 28.0713C29.8008 26.3623 31.4282 25.3042 33.707 24.4175C35.4282 23.7461 38.0132 22.9526 42.7739 22.7339C47.2783 22.5303 49.0239 22.4692 58.124 22.459V22.4712ZM88.5688 30.5786C85.334 30.5786 82.7095 33.2007 82.7095 36.436C82.7095 39.6709 85.334 42.2954 88.5688 42.2954C91.8037 42.2954 94.4282 39.6709 94.4282 36.436C94.4282 33.2012 91.8037 30.5767 88.5688 30.5767V30.5786ZM62.5044 37.4248C48.6567 37.4248 37.4292 48.6523 37.4292 62.5005C37.4292 76.3486 48.6567 87.5708 62.5044 87.5708C76.3525 87.5708 87.5762 76.3486 87.5762 62.5005C87.5762 48.6528 76.3516 37.4248 62.5034 37.4248H62.5044ZM62.5044 46.2241C71.4932 46.2241 78.7808 53.5107 78.7808 62.5005C78.7808 71.4893 71.4932 78.7769 62.5044 78.7769C53.5151 78.7769 46.2285 71.4893 46.2285 62.5005C46.2285 53.5107 53.5151 46.2241 62.5044 46.2241Z" fill="white"/>
</g>
<defs>
<radialGradient id="paint0_radial_254_20636" cx="0" cy="0" r="1" gradientUnits="userSpaceOnUse" gradientTransform="translate(33.2031 134.627) rotate(-90) scale(123.884 115.222)">
<stop stop-color="#FFDD55"/>
<stop offset="0.1" stop-color="#FFDD55"/>
<stop offset="0.5" stop-color="#FF543E"/>
<stop offset="1" stop-color="#C837AB"/>
</radialGradient>
<radialGradient id="paint1_radial_254_20636" cx="0" cy="0" r="1" gradientUnits="userSpaceOnUse" gradientTransform="translate(-20.938 9.00439) rotate(78.681) scale(55.377 228.266)">
<stop stop-color="#3771C8"/>
<stop offset="0.128" stop-color="#3771C8"/>
<stop offset="1" stop-color="#6600FF" stop-opacity="0"/>
</radialGradient>
</defs>
</svg>
