<svg width="125" height="125" viewBox="0 0 125 125" fill="none" xmlns="http://www.w3.org/2000/svg">
<g id="logos:facebook" clip-path="url(#clip0_254_20630)">
<path id="Vector" d="M125 63.5C125 28.9824 97.0176 1 62.5 1C27.9824 1 0 28.9824 0 63.5C0 94.6953 22.8555 120.552 52.7344 125.241V81.5664H36.8652V63.5H52.7344V49.7305C52.7344 34.0664 62.0654 25.4141 76.3418 25.4141C83.1797 25.4141 90.332 26.6348 90.332 26.6348V42.0156H82.4512C74.687 42.0156 72.2656 46.8335 72.2656 51.7764V63.5H89.5996L86.8286 81.5664H72.2656V125.241C102.145 120.552 125 94.6958 125 63.5Z" fill="#1877F2"/>
<path id="Vector_2" d="M86.8286 80.5664L89.5996 62.5H72.2656V50.7764C72.2656 45.833 74.687 41.0156 82.4512 41.0156H90.332V25.6348C90.332 25.6348 83.1797 24.4141 76.3413 24.4141C62.0654 24.4141 52.7344 33.0664 52.7344 48.7305V62.5H36.8652V80.5664H52.7344V124.241C55.9649 124.747 59.23 125.001 62.5 125C65.77 125.001 69.0351 124.747 72.2656 124.241V80.5664H86.8286Z" fill="white"/>
</g>
<defs>
<clipPath id="clip0_254_20630">
<rect width="125" height="125" fill="white"/>
</clipPath>
</defs>
</svg>
