<svg width="149" height="122" viewBox="0 0 149 122" fill="none" xmlns="http://www.w3.org/2000/svg">
<g id="logos:twitter" clip-path="url(#clip0_254_20643)">
<path id="Vector" d="M149 14.856C143.421 17.3349 137.502 18.9621 131.442 19.6834C137.755 15.8892 142.601 9.8808 144.883 2.72191C138.883 6.2931 132.318 8.80923 125.472 10.1616C119.896 4.20342 111.951 0.479797 103.159 0.479797C86.2762 0.479797 72.5886 14.2068 72.5886 31.1374C72.5886 33.5406 72.8593 35.8802 73.3802 38.1247C47.9745 36.8457 25.4499 24.6405 10.3724 6.0918C7.7416 10.6198 6.23414 15.8868 6.23414 21.5047C6.23414 32.1414 11.6313 41.5249 19.8333 47.0231C14.9789 46.8706 10.2312 45.5556 5.98677 43.188C5.98503 43.3164 5.98503 43.4448 5.98503 43.5738C5.98503 58.4281 16.5221 70.8195 30.506 73.636C26.0045 74.8639 21.2827 75.0435 16.7014 74.1614C20.5911 86.3415 31.8808 95.2049 45.257 95.453C34.795 103.675 21.6137 108.577 7.29227 108.577C4.82446 108.577 2.39157 108.432 0 108.149C13.5282 116.847 29.5963 121.923 46.8593 121.923C103.088 121.923 133.835 75.2063 133.835 34.6929C133.835 33.3632 133.805 32.041 133.746 30.7265C139.731 26.3875 144.896 21.0132 149 14.856Z" fill="#55ACEE"/>
</g>
<defs>
<clipPath id="clip0_254_20643">
<rect width="149" height="122" fill="white"/>
</clipPath>
</defs>
</svg>
